<?xml version="1.0" standalone="no"?>
<!DOCTYPE svg PUBLIC "-//W3C//DTD SVG 20010904//EN"
 "http://www.w3.org/TR/2001/REC-SVG-20010904/DTD/svg10.dtd">
<svg version="1.0" xmlns="http://www.w3.org/2000/svg"
 width="256.000000pt" height="256.000000pt" viewBox="0 0 256.000000 256.000000"
 preserveAspectRatio="xMidYMid meet">
<metadata>
Created by potrace 1.16, written by Peter Selinger 2001-2019
</metadata>
<g transform="translate(0.000000,256.000000) scale(0.100000,-0.100000)"
fill="#000000" stroke="none">
<path d="M0 1819 l0 -740 59 46 c69 54 109 108 122 162 4 21 13 124 19 228 13
233 26 286 108 449 148 298 419 503 709 536 204 23 439 6 537 -39 95 -44 126
-83 107 -134 -9 -24 -53 -60 -315 -258 -130 -99 -234 -187 -258 -220 -30 -39
-36 -122 -28 -373 6 -182 11 -239 23 -263 27 -52 113 -119 225 -176 59 -31
134 -71 167 -89 130 -74 208 -87 281 -50 21 11 100 71 174 133 122 102 304
230 387 273 37 19 75 9 93 -24 21 -40 24 -191 5 -271 -72 -309 -202 -521 -405
-664 -91 -63 -153 -95 -240 -123 -243 -78 -502 -68 -755 29 -98 38 -119 43
-196 43 -84 1 -89 0 -175 -45 -49 -26 -113 -62 -141 -81 -29 -19 -107 -61
-173 -94 -66 -32 -120 -62 -120 -66 0 -5 529 -8 1175 -8 l1175 0 0 1280 0
1280 -1280 0 -1280 0 0 -741z"/>
</g>
</svg>
